<svg width="31" height="28" viewBox="0 0 31 28" fill="none" xmlns="http://www.w3.org/2000/svg">
<path d="M30.0918 9.45897H26.8955L19.9025 0.717822C19.5893 0.326265 19.0178 0.26263 18.626 0.576021C18.2344 0.889351 18.1708 1.46085 18.4842 1.85253L24.5694 9.45897H6.43062L12.5158 1.85253C12.8292 1.46085 12.7656 0.88929 12.374 0.576021C11.9823 0.26263 11.4108 0.326204 11.0975 0.717822L4.10453 9.45897H0.908203C0.406633 9.45897 0 9.8656 0 10.3672V12.1836C0 12.6852 0.406633 13.0918 0.908203 13.0918H30.0918C30.5934 13.0918 31 12.6852 31 12.1836V10.3672C31 9.8656 30.5934 9.45897 30.0918 9.45897Z" fill="#3A261D"/>
<path d="M5.48415 26.9644C5.59556 27.3543 5.95194 27.623 6.35742 27.623H24.6426C25.0481 27.623 25.4044 27.3543 25.5158 26.9644L28.9604 14.9082H2.03958L5.48415 26.9644ZM19.6598 22.9328L20.568 17.4836C20.6505 16.9888 21.1184 16.6543 21.6132 16.737C22.108 16.8195 22.4422 17.2874 22.3597 17.7822L21.4515 23.2314C21.3775 23.6756 20.9927 23.9905 20.5568 23.9905C20.5072 23.9905 20.4569 23.9864 20.4064 23.9779C19.9116 23.8955 19.5773 23.4275 19.6598 22.9328ZM14.5918 17.6328C14.5918 17.1312 14.9984 16.7246 15.5 16.7246C16.0016 16.7246 16.4082 17.1312 16.4082 17.6328V23.082C16.4082 23.5836 16.0016 23.9902 15.5 23.9902C14.9984 23.9902 14.5918 23.5836 14.5918 23.082V17.6328ZM9.44737 16.737C9.94222 16.6546 10.4101 16.9888 10.4925 17.4836L11.4007 22.9328C11.4832 23.4275 11.149 23.8955 10.6542 23.9779C10.6037 23.9864 10.5534 23.9905 10.5038 23.9905C10.0678 23.9905 9.68308 23.6757 9.60903 23.2314L8.70083 17.7822C8.61836 17.2874 8.95258 16.8194 9.44737 16.737Z" fill="#3A261D"/>
</svg>
