<svg width="90" height="29" viewBox="0 0 90 29" fill="none" xmlns="http://www.w3.org/2000/svg">
<g clip-path="url(#clip0)">
<path fill-rule="evenodd" clip-rule="evenodd" d="M15.4634 22.4366C15.4154 21.9868 15.6886 19.7728 15.6886 19.7728C15.6886 19.7728 16.2378 19.8647 16.7678 19.9232C17.2977 19.9816 18.1504 20.028 18.1504 20.028C18.1504 20.028 17.6906 21.6891 17.9576 22.0683C18.5748 22.9447 21.9479 25.1091 22.7213 25.9778C23.1101 26.3641 23.5049 26.7388 23.9878 27.0763C24.3292 27.3661 25.4309 27.3994 25.7206 27.6892C25.9143 27.8985 26.1513 28.5086 26.0324 28.619C25.9512 28.6943 24.2818 28.7309 23.9878 28.6781C23.6692 28.6781 23.2876 28.3713 23.2876 28.3713C23.2876 28.3713 23.0505 28.619 22.7213 28.4438C22.1412 28.1551 22.2279 27.5594 21.8892 27.0763C21.6956 26.8833 18.8607 25.0212 17.034 23.9919C15.4668 23.1089 15.5364 23.1216 15.4634 22.4366ZM4.19097 16.7053C3.85132 16.4037 2.59643 17.4766 2.2377 17.3993C1.87896 17.3219 2.22983 16.4356 1.91203 16.4896C1.48109 16.5628 1.36614 17.5702 0.979072 17.6484C0.354847 17.8828 0 16.9492 0 15.8348C0 14.7204 0.396849 13.5061 1.74851 12.7286C3.10018 11.951 5.10179 11.7529 6.65491 12.2733C8.12872 11.4853 10.0677 9.19818 14.3864 9.09128C18.7051 8.98438 20.322 11.1399 21.24 10.6238C22.1579 10.1077 22.4686 8.94409 22.2689 8.07479C21.8864 6.4097 21.1444 5.50431 20.5506 4.0216C20.1777 3.09126 20.1573 1.86236 20.627 0.961148C20.8377 0.560863 21.3494 0.0939462 22.1211 0.00783977C22.8928 -0.0782666 23.096 0.569522 23.6361 0.74623C24.1762 0.922937 25.3305 1.03171 25.4206 1.4428C25.5108 1.85389 24.1257 2.17705 23.8117 2.14338C23.0763 2.06468 22.6122 2.5589 22.6521 3.43212C22.6996 4.54255 22.9609 4.93906 23.9857 6.5197C25.0104 8.10034 25.0011 10.7285 23.6923 12.5623C23.2796 13.0981 22.8402 13.5531 22.549 14.1657C22.3144 14.6564 22.549 13.6675 22.549 15.6261C22.549 17.5847 21.5606 18.5275 20.2689 18.9414C18.53 19.4986 17.0283 19.2902 15.4925 19.1094C13.3674 18.8591 11.7045 18.8884 10.8366 19.1094C10.0844 19.3015 7.73032 20.6284 7.44062 21.2458C7.28684 21.5792 6.45601 25.0484 6.30375 25.8104C6.24149 26.124 6.27657 26.7484 6.13115 27.0265C5.97207 27.3352 4.0349 28.5554 3.37729 28.8059C3.0743 28.9216 2.46249 29.0696 2.38982 28.9636C1.96121 28.4708 1.9627 28.3567 3.2082 27.4586C2.77317 26.5572 4.02831 26.3371 4.39737 25.8925C4.80021 25.409 5.53091 20.1445 5.78141 19.459C6.0319 18.7734 7.00967 18.5374 7.40606 17.9275C7.21854 17.7111 6.95887 17.8266 6.27202 18.0188C5.68275 18.1845 4.45218 18.6226 4.19097 18.4036C3.92975 18.1845 4.53062 17.0068 4.19097 16.7053Z" fill="#255429"/>
<path fill-rule="evenodd" clip-rule="evenodd" d="M38.0632 13.5975H34.0704V3.41316H38.0481C41.209 3.41316 43.4021 5.44392 43.4021 8.49769C43.4021 11.582 41.209 13.5975 38.0632 13.5975ZM38.0481 11.6889C40.0445 11.6889 41.209 10.2383 41.209 8.49769C41.209 6.71123 40.1201 5.32176 38.0632 5.32176H36.218V11.6889H38.0481ZM48.3175 13.7807C46.0942 13.7807 44.4154 12.2691 44.4154 9.90242C44.4154 7.76478 45.9883 6.0394 48.1965 6.0394C50.3895 6.0394 51.8565 7.68844 51.8565 10.0857V10.5437H46.4269C46.563 11.4446 47.289 12.1928 48.5292 12.1928C49.1493 12.1928 49.9963 11.9332 50.4651 11.4751L51.3272 12.7577C50.6012 13.4295 49.4518 13.7807 48.3175 13.7807ZM50.0114 9.20006C49.9509 8.49769 49.4669 7.62736 48.1965 7.62736C47.0016 7.62736 46.4874 8.46715 46.4118 9.20006H50.0114ZM55.3049 13.7807C53.9588 13.7807 53.248 13.0783 53.248 11.75V3.41316H55.1688V11.2308C55.1688 11.7042 55.4108 12.0553 55.8342 12.0553C56.1216 12.0553 56.3938 11.9485 56.4997 11.8263L56.9081 13.3074C56.6207 13.567 56.0914 13.7807 55.3049 13.7807ZM58.7079 5.42865C58.0878 5.42865 57.5735 4.9095 57.5735 4.26821C57.5735 3.62692 58.0878 3.12305 58.7079 3.12305C59.3431 3.12305 59.8573 3.62692 59.8573 4.26821C59.8573 4.9095 59.3431 5.42865 58.7079 5.42865ZM59.6758 13.5975H57.755V6.22263H59.6758V13.5975ZM65.544 13.5975H63.472L60.5379 6.22263H62.5948L64.5005 11.353L66.4213 6.22263H68.4782L65.544 13.5975ZM72.7735 13.7807C70.5502 13.7807 68.8714 12.2691 68.8714 9.90242C68.8714 7.76478 70.4443 6.0394 72.6525 6.0394C74.8455 6.0394 76.3126 7.68844 76.3126 10.0857V10.5437H70.8829C71.019 11.4446 71.745 12.1928 72.9852 12.1928C73.6053 12.1928 74.4523 11.9332 74.9211 11.4751L75.7832 12.7577C75.0572 13.4295 73.9078 13.7807 72.7735 13.7807ZM74.4674 9.20006C74.4069 8.49769 73.9229 7.62736 72.6525 7.62736C71.4576 7.62736 70.9434 8.46715 70.8678 9.20006H74.4674ZM79.6248 13.5975H77.704V6.22263H79.6248V7.2151C80.1541 6.57381 81.0465 6.0394 81.9539 6.0394V7.93274C81.8178 7.9022 81.6514 7.88693 81.4246 7.88693C80.7893 7.88693 79.9424 8.25339 79.6248 8.72672V13.5975ZM86.1131 16.5902C84.888 16.5902 83.905 16.239 83.058 15.4908L83.9201 14.1014C84.4494 14.7427 85.3418 15.0022 86.1131 15.0022C87.3533 15.0022 88.0793 14.1472 88.0793 13.1089V12.3454C87.5802 12.8951 86.7029 13.4601 85.5081 13.4601C83.905 13.4601 83.1487 12.5745 83.1487 11.1392V6.22263H85.0695V10.3758C85.0695 11.3988 85.5989 11.7347 86.4156 11.7347C87.1567 11.7347 87.7465 11.3224 88.0793 10.8949V6.22263H90V13.1089C90 15.3229 88.4422 16.5902 86.1131 16.5902ZM38.8001 27.6615C35.7602 27.6615 33.4159 25.5239 33.4159 22.3937C33.4159 19.2484 35.7602 17.126 38.8001 17.126C41.0083 17.126 42.2939 18.3322 43.0047 19.6148L41.1595 20.5309C40.7361 19.7064 39.8286 19.0499 38.8001 19.0499C36.955 19.0499 35.624 20.4699 35.624 22.3937C35.624 24.3176 36.955 25.7376 38.8001 25.7376C39.8286 25.7376 40.7361 25.0811 41.1595 24.2565L43.0047 25.1574C42.2939 26.4247 41.0083 27.6615 38.8001 27.6615ZM46.4723 27.6615C45.1262 27.6615 44.4154 26.9591 44.4154 25.6307V17.2939H46.3362V25.1116C46.3362 25.5849 46.5782 25.9361 47.0016 25.9361C47.289 25.9361 47.5612 25.8292 47.6671 25.7071L48.0755 27.1882C47.7881 27.4477 47.2588 27.6615 46.4723 27.6615ZM55.7737 27.4783H53.853V26.5469C53.3539 27.0966 52.4766 27.6615 51.2818 27.6615C49.6786 27.6615 48.9224 26.7759 48.9224 25.3406V20.1034H50.8432V24.5772C50.8432 25.6002 51.3726 25.9361 52.1893 25.9361C52.9304 25.9361 53.5202 25.5239 53.853 25.0963V20.1034H55.7737V27.4783ZM59.6002 25.1116C59.9329 25.5849 60.6286 25.9361 61.2639 25.9361C62.3679 25.9361 63.109 25.0658 63.109 23.7832C63.109 22.5159 62.3679 21.6456 61.2639 21.6456C60.6286 21.6456 59.9329 22.012 59.6002 22.5006V25.1116ZM59.6002 27.4783H57.6794V17.2939H59.6002V21.0501C60.1749 20.2866 60.9916 19.9202 61.8537 19.9202C63.714 19.9202 65.0903 21.386 65.0903 23.7832C65.0903 26.2568 63.6989 27.6615 61.8537 27.6615C60.9765 27.6615 60.1749 27.2645 59.6002 26.5316V27.4783Z" fill="#255429"/>
</g>
<defs>
<clipPath id="clip0">
<rect width="90" height="29" rx="6" fill="white"/>
</clipPath>
</defs>
</svg>
