<svg width="14" height="14" viewBox="0 0 14 14" fill="none" xmlns="http://www.w3.org/2000/svg">
<path d="M13.7282 11.1323L12.1762 10.0975L10.7965 9.17782C10.5302 9.00067 10.1724 9.05874 9.9758 9.31107L9.12205 10.4086C8.93866 10.6468 8.60876 10.7152 8.34577 10.5696C7.76647 10.2474 7.08144 9.94396 5.56995 8.43053C4.05846 6.9171 3.75312 6.234 3.43087 5.6547C3.28527 5.39171 3.35371 5.06182 3.59187 4.87845L4.68941 4.02471C4.94171 3.82816 4.99981 3.47032 4.82265 3.20402L3.93126 1.86679L2.86823 0.272232C2.6873 0.000820869 2.3251 -0.0806626 2.04538 0.0870894L0.819411 0.822573C0.48809 1.01778 0.244542 1.33299 0.139216 1.70287C-0.196042 2.9252 -0.263635 5.62162 4.05772 9.94298C8.37908 14.2643 11.0752 14.1965 12.2976 13.8612C12.6675 13.7559 12.9827 13.5124 13.1779 13.181L13.9134 11.9551C14.0811 11.6753 13.9997 11.3132 13.7282 11.1323Z" fill="#3A261D"/>
</svg>
