<svg width="95" height="20" viewBox="0 0 95 20" fill="none" xmlns="http://www.w3.org/2000/svg">
<path d="M43.9226 16.4794C42.7507 16.4794 41.8311 16.0294 41.1661 15.1279C40.4997 14.2272 40.1676 12.8687 40.1676 11.0522C40.1676 10.2279 40.2502 9.48081 40.417 8.80938C40.5838 8.13938 40.8297 7.57009 41.1553 7.10223C41.4655 6.64792 41.8824 6.27401 42.3707 6.01223C42.8551 5.75438 43.4164 5.62438 44.0531 5.62438C44.5448 5.62438 44.9429 5.67723 45.2468 5.78152C45.5514 5.88652 45.8255 6.01581 46.0721 6.16938L45.8327 7.72009C45.5866 7.50928 45.3129 7.33177 45.0191 7.19223C44.7121 7.04238 44.374 6.96487 44.0314 6.96581C43.4237 6.96581 42.924 7.29581 42.5331 7.95581C42.143 8.61581 41.9472 9.62009 41.9472 10.9679C41.9472 12.3022 42.1103 13.3308 42.4359 14.0537C42.7616 14.7772 43.2714 15.1387 43.9661 15.1387C44.386 15.1387 44.7479 15.0701 45.0517 14.9329C45.3261 14.8142 45.582 14.6576 45.8117 14.4679L46.2019 15.6837C45.9118 15.9208 45.5869 16.1122 45.2258 16.2594C44.8632 16.4065 44.4295 16.4794 43.9226 16.4794ZM35.2181 11.0729V16.3329H33.5255V5.77152H35.2188V10.6537L37.8455 5.77152H39.5606L36.8469 10.7379L39.9507 16.3329H38.1058L35.2196 11.0729H35.2181ZM28.7712 6.96581C28.2498 6.96581 27.8806 7.24866 27.6638 7.81438C27.4463 8.38009 27.3085 9.13866 27.2512 10.0879H30.0519C30.0519 9.64152 30.0301 9.22581 29.9866 8.84152C29.9527 8.5035 29.8834 8.16983 29.7799 7.84581C29.6856 7.56723 29.5551 7.35009 29.3898 7.19581C29.2221 7.04186 28.9996 6.95921 28.7705 6.96581H28.7712ZM31.8097 15.6201C31.4494 15.8925 31.0462 16.1048 30.6161 16.2487C30.1672 16.4029 29.6682 16.4794 29.1178 16.4794C27.9894 16.4794 27.0989 16.0572 26.4484 15.2115C25.7964 14.3665 25.4716 13.1265 25.4716 11.4922C25.4716 10.6401 25.5325 9.85795 25.6558 9.14509C25.779 8.43295 25.9741 7.81438 26.2417 7.29081C26.51 6.76652 26.853 6.35795 27.2729 6.06438C27.6928 5.77152 28.1917 5.62438 28.7705 5.62438C29.2193 5.62438 29.6313 5.71223 30.0084 5.88652C30.384 6.06152 30.7031 6.34438 30.9634 6.73509C31.2238 7.12652 31.4261 7.63295 31.5711 8.25438C31.7162 8.87581 31.7887 9.63438 31.7887 10.5279V11.4294H27.2294C27.2294 12.6308 27.3998 13.5394 27.7392 14.1537C28.0801 14.7679 28.5899 15.0751 29.2694 15.0751C29.748 15.0751 30.1708 14.9951 30.5399 14.8344C30.909 14.6737 31.202 14.5172 31.4188 14.3629L31.8105 15.6201H31.8097ZM21.9109 7.11295H20.0225V7.30081C20.0214 7.91046 20.0105 8.52006 19.9898 9.12938C19.9681 9.79152 19.9209 10.4637 19.8492 11.1465C19.7766 11.8294 19.6751 12.5015 19.5446 13.1629C19.414 13.8251 19.2335 14.4344 19.0021 14.9915H21.9116V7.11295H21.9109ZM24.4512 18.4072H22.9305V16.3329H18.2414V18.4072H16.7229V14.9915H17.3958C17.6417 14.433 17.8367 13.8151 17.9818 13.1372C18.1268 12.4594 18.2392 11.7615 18.3183 11.0415C18.398 10.3222 18.4488 9.58866 18.4706 8.84152C18.492 8.11862 18.5028 7.39545 18.5032 6.67223V5.77152H23.5824V14.9915H24.4512V18.4072ZM15.746 5.77152V16.3329H14.0745V11.5972H11.5566V16.3329H9.86255V5.77152H11.5559V10.2558H14.0737V5.77152H15.7453H15.746ZM73.1964 1.02295H78.8427V1.88081H74.274V8.05938H78.1958V8.91795H74.2747V15.5037H78.9072V16.3622H73.1964V1.02295ZM82.5847 11.8908C82.4832 12.7729 82.357 13.5079 82.2054 14.0958C82.0539 14.6837 81.8341 15.1387 81.5455 15.4601H85.6987V6.47295H82.9306C82.9161 7.04723 82.8943 7.64223 82.8653 8.25866C82.8363 8.79009 82.8001 9.37509 82.7566 10.0115C82.7138 10.6494 82.6558 11.2758 82.584 11.8915L82.5847 11.8908ZM86.8017 16.3087H80.8754L80.7449 18.4072H79.945V15.4608H80.3997C80.7311 15.2779 81.0016 14.8494 81.2105 14.1729C81.4193 13.4979 81.5817 12.6537 81.6971 11.6401C81.7696 10.9794 81.8232 10.2972 81.8595 9.59295C81.8958 8.88938 81.9277 8.24223 81.9567 7.65152C81.9857 6.96152 82.0074 6.28652 82.0219 5.62438H86.7371V15.4601H87.7321V18.4072H86.9322L86.8017 16.3087ZM91.5517 16.0144C92.0709 16.0144 92.5118 15.8094 92.8752 15.3979C93.2385 14.9858 93.5242 14.4894 93.7316 13.9072V10.9487H92.5307C91.5959 10.9487 90.9063 11.1615 90.461 11.5872C90.0164 12.0129 89.7938 12.6944 89.7938 13.6301C89.7938 14.3972 89.9534 14.9858 90.2724 15.3979C90.5915 15.8094 91.0172 16.0151 91.5517 16.0151V16.0144ZM94.0434 16.6587C93.9889 16.4779 93.9406 16.2954 93.8984 16.1115C93.8353 15.8108 93.7943 15.5059 93.7758 15.1994C93.5097 15.7144 93.1761 16.1222 92.7751 16.4229C92.3748 16.7229 91.8925 16.8737 91.329 16.8737C90.5727 16.8737 89.957 16.5987 89.4827 16.0472C89.0077 15.4965 88.7706 14.7265 88.7706 13.7394C88.7706 12.5801 89.0897 11.7037 89.7271 11.1094C90.3653 10.5158 91.2921 10.2187 92.5082 10.2187H93.7316V8.85866C93.7316 8.02295 93.5764 7.41938 93.2646 7.04438C92.9527 6.67081 92.4857 6.48366 91.8628 6.48366C91.3885 6.48366 90.9432 6.58866 90.5284 6.80081C90.1179 7.00731 89.766 7.3112 89.5045 7.68509L89.2151 6.71938C89.4377 6.43366 89.775 6.17938 90.2275 5.95723C90.68 5.73581 91.2253 5.62438 91.8628 5.62438C92.7976 5.62438 93.5133 5.87866 94.0094 6.38652C94.5068 6.89509 94.7556 7.68509 94.7556 8.75866V14.6622C94.7556 15.0351 94.7773 15.4108 94.8223 15.7894C94.8665 16.1687 94.9253 16.4587 95 16.6587H94.0434Z" fill="#255429"/>
<mask id="mask0" mask-type="alpha" maskUnits="userSpaceOnUse" x="49" y="0" width="20" height="20">
<path d="M49.9808 0.0908203H68.8996V19.9415H49.9808V0.0908203Z" fill="white"/>
</mask>
<g mask="url(#mask0)">
<path d="M61.8202 8.24769C61.8089 8.2127 61.7956 8.17836 61.7803 8.14483C61.738 8.03558 61.6855 7.93038 61.6237 7.83054C61.5139 7.6642 61.3794 7.51493 61.2248 7.38769C61.0601 7.25602 60.8769 7.14848 60.681 7.0684C60.4742 6.98694 60.257 6.93429 60.0355 6.91197C59.8026 6.89158 59.5679 6.9024 59.3379 6.94412C59.0984 6.98993 58.8663 7.06779 58.6482 7.17554C58.4223 7.28966 58.2132 7.43361 58.0268 7.6034C57.8348 7.78105 57.6686 7.98391 57.5329 8.20626C57.248 8.68178 57.1062 9.22725 57.1239 9.77912C57.134 10.072 57.187 10.3684 57.2762 10.637C57.3719 10.9277 57.5119 11.2105 57.6794 11.4563C57.8607 11.7205 58.084 11.967 58.3234 12.167C58.5815 12.3834 58.876 12.5698 59.174 12.7063C59.8296 13.0073 60.5547 13.131 61.2749 13.0648C62.0438 12.9952 62.7804 12.7272 63.4106 12.2877C63.7365 12.0595 64.0306 11.7901 64.2851 11.4863C64.5444 11.174 64.7603 10.829 64.9269 10.4605C65.271 9.68885 65.3935 8.83891 65.2808 8.0034C65.2228 7.5689 65.1047 7.14425 64.9298 6.74126C64.7489 6.3249 64.5118 5.93448 64.225 5.58054C63.928 5.21436 63.5829 4.88866 63.1988 4.61197C62.8019 4.32586 62.3687 4.09221 61.9101 3.91697C61.4371 3.73615 60.9423 3.61658 60.438 3.56126C59.9205 3.50447 59.3977 3.51359 58.8825 3.5884C57.2541 3.82807 55.7886 4.69366 54.8069 5.99554C54.4721 6.43921 54.1994 6.92524 53.9961 7.44054C53.7894 7.96488 53.6557 8.51441 53.5987 9.07412C53.5411 9.64549 53.5624 10.2219 53.6618 10.7877C53.7655 11.3713 53.9476 11.9341 54.2006 12.4613C54.4632 13.0068 54.7985 13.5153 55.1978 13.9734C55.6084 14.4442 56.0802 14.8597 56.601 15.2091C57.1391 15.5705 57.72 15.8591 58.3263 16.0691C58.9515 16.286 59.6025 16.4228 60.2632 16.4763C60.9449 16.5305 61.6244 16.4991 62.2836 16.3834C63.6538 16.1454 64.9372 15.5597 66.0075 14.6841C67.1043 13.7874 67.9382 12.6186 68.4231 11.2984C68.6697 10.6213 68.8219 9.92126 68.8763 9.2184C68.9322 8.49641 68.8886 7.77028 68.7465 7.05983C68.6018 6.3353 68.3586 5.63327 68.0235 4.97269C67.6806 4.29709 67.248 3.66944 66.737 3.10626C66.214 2.52987 65.6164 2.02364 64.9596 1.60054C64.2876 1.16708 63.5614 0.821112 62.7992 0.571259C62.0215 0.316884 61.2138 0.161809 60.396 0.109831C58.6978 0.00344165 57.0007 0.333735 55.4713 1.0683C53.9418 1.80287 52.6325 2.91647 51.6719 4.29983C50.6854 5.72375 50.1074 7.38356 49.9989 9.10412C49.9452 9.98269 50.0105 10.8584 50.1932 11.7084C50.3818 12.582 50.6864 13.4241 51.099 14.2098C51.5218 15.0156 52.0512 15.7626 52.6734 16.4313C53.3116 17.1155 54.0353 17.7134 54.8258 18.2091C55.6347 18.7165 56.5069 19.1189 57.4205 19.4063C58.5482 19.761 59.7249 19.9412 60.9087 19.9405C63.726 19.938 66.4472 18.9312 68.5696 17.1063L67.3672 15.8284C66.086 16.9328 64.535 17.6898 62.8667 18.0248C62.0512 18.1894 61.2177 18.2506 60.3865 18.207C59.5684 18.1636 58.7592 18.0172 57.9789 17.7713C57.2146 17.5307 56.4851 17.1938 55.8084 16.7691C55.1466 16.354 54.543 15.8552 54.0128 15.2855C53.4948 14.729 53.0541 14.1072 52.7024 13.4363C52.3608 12.7848 52.1077 12.0863 51.9518 11.3605C51.8001 10.6528 51.7462 9.92819 51.7916 9.20626C51.9001 7.46109 52.595 5.80107 53.7668 4.4877C54.9386 3.17434 56.5207 2.28225 58.2639 1.95197C58.9274 1.82546 59.6047 1.78321 60.2792 1.82626C60.934 1.86769 61.5867 1.9934 62.2198 2.19983C62.829 2.3984 63.4142 2.67769 63.9588 3.0284C64.4852 3.36767 64.964 3.77352 65.3831 4.23554C65.7907 4.68518 66.1358 5.18624 66.4092 5.72554C66.6739 6.24554 66.8676 6.80412 66.9836 7.38412C67.096 7.94126 67.1301 8.51483 67.0851 9.09197C67.0219 9.91795 66.7906 10.723 66.4049 11.459C66.0191 12.1951 65.4869 12.8471 64.8399 13.3763C64.0118 14.0522 63.0198 14.505 61.9609 14.6905C61.4498 14.7793 60.9292 14.8031 60.4119 14.7613C59.9083 14.7204 59.412 14.616 58.9354 14.4505C58.4735 14.2899 58.0348 14.0709 57.6301 13.7991C57.2384 13.5358 56.8836 13.2229 56.5749 12.8684C56.2767 12.5262 56.0264 12.1462 55.8309 11.7384C55.6418 11.3444 55.5076 10.9271 55.432 10.4977C55.3586 10.0815 55.343 9.65734 55.3856 9.23697C55.4659 8.42672 55.7693 7.65344 56.2631 7.00054C56.7315 6.38055 57.3576 5.89321 58.0782 5.58769C58.4226 5.44244 58.7846 5.34161 59.1551 5.28769C59.8607 5.18306 60.5818 5.26135 61.2473 5.51483C61.5497 5.62983 61.8521 5.7934 62.1219 5.98769C62.3714 6.16626 62.6092 6.39126 62.8087 6.63626C62.9929 6.86269 63.1531 7.1284 63.2728 7.40412C63.3837 7.65697 63.4621 7.94126 63.5012 8.22554C63.5364 8.49506 63.5342 8.76804 63.4947 9.03697C63.4211 9.54291 63.2085 10.0194 62.8797 10.4148C62.5792 10.7755 62.1864 11.0507 61.7419 11.212C61.5468 11.2834 61.3271 11.3313 61.1066 11.3505C60.9023 11.3678 60.6966 11.359 60.4946 11.3241C60.3061 11.2908 60.1228 11.2337 59.9492 11.1541C59.7889 11.0791 59.6392 10.9838 59.504 10.8705C59.3804 10.7655 59.2716 10.6447 59.1805 10.5113C59.0191 10.2779 58.9283 10.0042 58.9187 9.72197C58.916 9.60092 58.9299 9.48006 58.9601 9.36269C58.9847 9.2684 59.0326 9.15697 59.0884 9.0634C59.1399 8.98146 59.2021 8.90653 59.2734 8.84054C59.327 8.79054 59.409 8.73554 59.4837 8.69769C59.5411 8.67069 59.6014 8.65008 59.6635 8.63626C59.7048 9.18483 60.1813 9.6184 60.7643 9.6184C61.3742 9.6184 61.8695 9.14412 61.8695 8.55983C61.8695 8.45269 61.8521 8.3484 61.821 8.25126L61.8202 8.24697" fill="#255429"/>
</g>
<path d="M6.08363 2.39586H5.17714C4.83664 2.39586 4.49907 2.45786 4.18145 2.57872C3.8519 2.70398 3.55645 2.90303 3.31847 3.16015C3.06756 3.42515 2.8645 3.77729 2.70931 4.21443C2.55485 4.65301 2.47725 5.19372 2.47725 5.83943C2.47725 6.45658 2.5476 6.97372 2.68756 7.38943C2.82752 7.80586 3.01969 8.143 3.26263 8.40086C3.49794 8.65355 3.79504 8.84266 4.12561 8.95015C4.46513 9.05879 4.82016 9.11305 5.17714 9.11086H6.08363V2.39658V2.39586ZM4.66805 10.4844L1.96889 16.363H0L2.96458 10.0766C2.27299 9.73484 1.69093 9.21122 1.28286 8.56372C0.855 7.89943 0.641794 6.99443 0.641794 5.84943C0.641794 5.04943 0.763626 4.34515 1.00656 3.73658C1.2495 3.12943 1.58164 2.62515 2.00225 2.22443C2.42202 1.82461 2.92334 1.51733 3.47294 1.323C4.04039 1.12177 4.6393 1.02023 5.2424 1.023H7.7871V16.3623H6.0829V10.4837H4.66878L4.66805 10.4844Z" fill="#255429"/>
</svg>
